<svg width="180" height="180" viewBox="0 0 180 180" fill="none" xmlns="http://www.w3.org/2000/svg">
  <defs>
    <linearGradient id="ruby" x1="28" y1="20" x2="152" y2="160" gradientUnits="userSpaceOnUse">
      <stop stop-color="#ff4a6c"/>
      <stop offset="0.52" stop-color="#cf2442"/>
      <stop offset="1" stop-color="#7c1326"/>
    </linearGradient>
    <filter id="glow" x="-20%" y="-20%" width="140%" height="140%" color-interpolation-filters="sRGB">
      <feDropShadow dx="0" dy="22" stdDeviation="18" flood-color="#cf2442" flood-opacity="0.34"/>
    </filter>
  </defs>
  <rect width="180" height="180" rx="42" fill="#05060b"/>
  <rect x="10" y="10" width="160" height="160" rx="38" fill="#0b0d16"/>
  <rect x="12" y="12" width="156" height="156" rx="36" stroke="white" stroke-opacity="0.1" stroke-width="4"/>
  <path d="M59 52.4C59 47.5 64.4 44.5 68.6 47.2L126.4 84.6C130.3 87.1 130.3 92.9 126.4 95.4L68.6 132.8C64.4 135.5 59 132.5 59 127.6V52.4Z" fill="url(#ruby)" filter="url(#glow)"/>
  <path d="M51 52V128" stroke="white" stroke-opacity="0.44" stroke-width="10" stroke-linecap="round"/>
  <path d="M78 73V107L105 90L78 73Z" fill="white" fill-opacity="0.94"/>
  <path d="M125 52H146M135.5 52V82M122 101L135.5 127L149 101" stroke="#eef2f8" stroke-opacity="0.84" stroke-width="7" stroke-linecap="round" stroke-linejoin="round"/>
</svg>
